<?xml version="1.0" encoding="iso-8859-1"?>
<!-- Uploaded to: SVG Repo, www.svgrepo.com, Generator: SVG Repo Mixer Tools -->
<svg height="800px" width="800px" version="1.1" id="Layer_1" xmlns="http://www.w3.org/2000/svg" xmlns:xlink="http://www.w3.org/1999/xlink" 
	 viewBox="0 0 512 512" xml:space="preserve">
<path style="fill:#E66A8C;" d="M494.947,7.954C228.143,12.752,12.752,228.143,7.953,494.948c-0.09,4.997,3.94,9.101,8.936,9.101
	h354.58c0-73.221,59.358-132.578,132.578-132.578V16.89C504.048,11.892,499.944,7.864,494.947,7.954z"/>
<path style="fill:#F7D64C;" d="M504.048,98.771c-223.829,0-405.276,181.449-405.276,405.276H371.47
	c0-73.221,59.358-132.578,132.578-132.578L504.048,98.771L504.048,98.771z"/>
<path style="fill:#7DBF63;" d="M504.048,189.671c-173.626,0-314.378,140.751-314.378,314.377h181.799
	c0-73.221,59.358-132.578,132.578-132.578V189.671H504.048z"/>
<path style="fill:#83D8DD;" d="M280.57,504.047h90.899c0-73.221,59.358-132.579,132.578-132.579V280.57
	C380.624,280.57,280.57,380.625,280.57,504.047z"/>
<g>
	<path style="fill:#FFFFFF;" d="M413.168,240.954c1.552,1.553,3.588,2.329,5.622,2.329s4.07-0.776,5.622-2.329
		c3.105-3.105,3.105-8.14,0-11.245l-12.977-12.977c-3.105-3.106-8.14-3.105-11.246,0c-3.105,3.105-3.105,8.14,0,11.246
		L413.168,240.954z M461.658,243.27c2.035,0,4.07-0.776,5.622-2.329l12.977-12.977c3.105-3.105,3.105-8.14,0-11.245
		c-3.105-3.105-8.14-3.105-11.245,0l-12.977,12.977c-3.105,3.105-3.105,8.14,0,11.245
		C457.588,242.494,459.623,243.27,461.658,243.27z M413.182,272.577l-12.977,12.977c-3.105,3.105-3.105,8.139,0,11.245
		c1.552,1.553,3.588,2.329,5.622,2.329c2.035,0,4.07-0.776,5.622-2.329l12.977-12.977c3.105-3.105,3.105-8.139,0-11.245
		C421.322,269.472,416.287,269.472,413.182,272.577z M480.271,285.54l-12.977-12.977c-3.105-3.105-8.14-3.105-11.245,0
		c-3.105,3.105-3.105,8.14,0,11.245l12.977,12.977c1.552,1.552,3.588,2.329,5.622,2.329s4.07-0.777,5.622-2.329
		C483.376,293.68,483.376,288.645,480.271,285.54z M482.593,256.759c0-4.391-3.56-7.952-7.952-7.952h-26.458v-26.458
		c0-4.391-3.56-7.952-7.952-7.952c-4.391,0-7.952,3.56-7.952,7.952v26.458h-26.458c-4.391,0-7.952,3.56-7.952,7.952
		c0,4.391,3.56,7.952,7.952,7.952h26.458v26.459c0,4.391,3.56,7.952,7.952,7.952c4.391,0,7.952-3.56,7.952-7.952V264.71h26.458
		C479.033,264.71,482.593,261.15,482.593,256.759z"/>
	<path style="fill:#FFFFFF;" d="M111.924,377.36c2.035,0,4.07-0.776,5.622-2.329l13.861-13.861c3.105-3.105,3.105-8.14,0-11.245
		c-3.105-3.106-8.14-3.105-11.245,0l-13.861,13.861c-3.105,3.105-3.105,8.14,0,11.245
		C107.854,376.584,109.889,377.36,111.924,377.36z M60.514,375.045c1.552,1.552,3.588,2.329,5.622,2.329s4.07-0.776,5.622-2.329
		c3.105-3.105,3.105-8.14,0-11.245l-13.861-13.861c-3.105-3.105-8.14-3.105-11.245,0c-3.105,3.105-3.105,8.14,0,11.246
		L60.514,375.045z M131.422,423.435l-13.861-13.861c-3.105-3.105-8.14-3.105-11.246,0c-3.105,3.105-3.105,8.14,0,11.245
		l13.861,13.861c1.552,1.552,3.588,2.329,5.622,2.329s4.07-0.776,5.622-2.329C134.528,431.574,134.528,426.539,131.422,423.435z
		 M60.528,409.587l-13.861,13.861c-3.105,3.105-3.105,8.14,0,11.245c1.552,1.552,3.588,2.329,5.622,2.329s4.07-0.776,5.622-2.329
		l13.861-13.861c3.105-3.105,3.105-8.14,0-11.246C68.668,406.483,63.633,406.483,60.528,409.587z M133.744,392.309
		c0-4.391-3.56-7.952-7.952-7.952H96.989v-28.804c0-4.391-3.56-7.952-7.952-7.952s-7.952,3.56-7.952,7.952v28.804H52.283
		c-4.391,0-7.952,3.56-7.952,7.952c0,4.391,3.56,7.952,7.952,7.952h28.803v28.804c0,4.391,3.56,7.952,7.952,7.952
		s7.952-3.56,7.952-7.952v-28.804h28.803C130.183,400.261,133.744,396.701,133.744,392.309z"/>
	<path style="opacity:0.2;fill:#FFFFFF;enable-background:new    ;" d="M340.496,35.465c-0.076,1.731-0.122,3.47-0.122,5.219
		c0,64.227,52.067,116.293,116.293,116.293c16.875,0,32.908-3.599,47.381-10.063V16.889c0-4.995-4.1-9.027-9.093-8.936
		C440.918,8.925,388.993,18.54,340.496,35.465z"/>
	<circle style="opacity:0.2;fill:#FFFFFF;enable-background:new    ;" cx="255.774" cy="146.107" r="45.631"/>
</g>
<path d="M321.987,200.464c1.552,1.552,3.588,2.329,5.622,2.329c2.036,0,4.07-0.776,5.622-2.329c3.105-3.105,3.105-8.14,0-11.245
	l-6.208-6.208c-3.105-3.105-8.14-3.105-11.245,0c-3.105,3.105-3.105,8.14,0,11.245L321.987,200.464z M192.006,318.031
	c-3.106-3.104-8.14-3.105-11.246,0c-3.105,3.105-3.105,8.14-0.001,11.246l6.208,6.209c1.553,1.552,3.588,2.329,5.623,2.329
	c2.035,0,4.07-0.776,5.622-2.328c3.105-3.105,3.105-8.14,0.001-11.246L192.006,318.031z M506.943,4.842
	c-3.261-3.203-7.576-4.917-12.139-4.839l0,0C363.696,2.361,240.381,54.77,147.576,147.575S2.361,363.696,0.003,494.805
	c-0.082,4.567,1.637,8.879,4.84,12.139c3.202,3.26,7.481,5.055,12.048,5.055h354.58c4.391,0,7.952-3.56,7.952-7.952
	c0-68.719,55.907-124.627,124.626-124.627c4.391,0,7.952-3.56,7.952-7.952V16.89C512,12.323,510.204,8.044,506.943,4.842z
	 M496.096,363.74c-71.174,3.988-128.368,61.182-132.356,132.356H16.891c-0.274,0-0.509-0.1-0.703-0.296
	c-0.194-0.197-0.289-0.437-0.284-0.71c2.284-126.968,53.039-246.392,142.917-336.269C248.699,68.943,368.121,18.187,495.09,15.903
	c0.284-0.031,0.513,0.091,0.709,0.284c0.197,0.193,0.296,0.429,0.296,0.703v346.85H496.096z M330.753,274.54
	c-3.105,3.105-3.105,8.14,0,11.246c4.959,4.96,4.959,13.028,0,17.987c-2.402,2.402-5.596,3.726-8.994,3.726
	s-6.591-1.323-8.994-3.726c-3.105-3.105-8.14-3.105-11.246,0c-1.552,1.552-2.329,3.588-2.329,5.622c0,2.036,0.776,4.07,2.329,5.622
	c4.959,4.96,4.959,13.028,0,17.987c-4.96,4.959-13.028,4.959-17.986,0c-3.105-3.105-8.14-3.105-11.245,0
	c-3.105,3.105-3.105,8.14,0,11.245c5.58,5.58,12.909,8.37,20.238,8.37s14.658-2.789,20.238-8.37
	c5.74-5.74,8.527-13.331,8.363-20.869c7.537,0.172,15.13-2.623,20.869-8.363c11.16-11.16,11.16-29.318,0-40.478
	C338.893,271.435,333.858,271.435,330.753,274.54z"/>
</svg>