<svg xmlns="http://www.w3.org/2000/svg" version="1.1" xmlns:xlink="http://www.w3.org/1999/xlink" xmlns:svgjs="http://svgjs.com/svgjs" width="1440" height="560" preserveAspectRatio="none" viewBox="0 0 1440 560"><g mask="url(&quot;#SvgjsMask1014&quot;)" fill="none"><rect width="1440" height="560" x="0" y="0" fill="rgba(87, 108, 221, 1)"></rect><path d="M1464 560L0 560 L0 299.56Q35.9 263.46, 72 299.35Q138.02 245.37, 192 311.39Q240.71 288.1, 264 336.81Q301.42 254.23, 384 291.64Q471.73 259.37, 504 347.1Q548.5 271.6, 624 316.1Q647.74 267.84, 696 291.58Q749.94 273.52, 768 327.46Q843.25 282.7, 888 357.95Q918.59 316.54, 960 347.14Q982.15 297.29, 1032 319.45Q1057.21 272.66, 1104 297.88Q1157.24 231.12, 1224 284.36Q1325.64 266, 1344 367.65Q1391.13 294.77, 1464 341.9z" fill="rgba(238, 161, 115, 1)"></path><path d="M1512 560L0 560 L0 383.64Q19.28 330.92, 72 350.21Q158.49 316.7, 192 403.19Q266.29 357.48, 312 431.77Q352 351.76, 432 391.76Q448.01 335.77, 504 351.78Q572.24 300.02, 624 368.26Q684 356.26, 696 416.27Q750.93 351.2, 816 406.13Q861.29 331.42, 936 376.71Q988.67 309.38, 1056 362.05Q1137.64 323.69, 1176 405.34Q1184.37 341.7, 1248 350.07Q1289.61 319.68, 1320 361.29Q1362.26 331.55, 1392 373.8Q1480.43 342.24, 1512 430.67z" fill="rgba(249, 214, 110, 1)"></path><path d="M1512 560L0 560 L0 461.21Q76.18 417.39, 120 493.57Q191.7 445.27, 240 516.98Q282.72 439.7, 360 482.41Q368.79 419.2, 432 427.99Q475.87 399.86, 504 443.73Q584.58 404.31, 624 484.89Q645.77 434.66, 696 456.43Q747.09 387.52, 816 438.61Q868.61 419.22, 888 471.82Q968.98 432.8, 1008 513.79Q1032.36 466.15, 1080 490.51Q1127 417.51, 1200 464.51Q1220.79 413.3, 1272 434.09Q1358.78 400.87, 1392 487.65Q1432.73 408.38, 1512 449.11z" fill="rgba(118, 200, 178, 1)"></path><path d="M1464 560L0 560 L0 584.86Q28.28 541.14, 72 569.43Q101.15 478.58, 192 507.72Q222.41 466.13, 264 496.54Q327.68 488.22, 336 551.89Q363.57 507.46, 408 535.03Q426.63 481.65, 480 500.28Q525.77 474.05, 552 519.82Q623.74 471.56, 672 543.29Q740.23 491.52, 792 559.75Q802.21 497.96, 864 508.17Q918.74 442.91, 984 497.65Q1041.26 482.91, 1056 540.18Q1114.16 526.35, 1128 584.51Q1134.01 518.52, 1200 524.53Q1268.13 472.66, 1320 540.8Q1376.73 525.53, 1392 582.27Q1392.73 511, 1464 511.74z" fill="rgba(157, 130, 209, 1)"></path></g><defs><mask id="SvgjsMask1014"><rect width="1440" height="560" fill="#ffffff"></rect></mask></defs></svg>